<svg xmlns="http://www.w3.org/2000/svg" xmlns:xlink="http://www.w3.org/1999/xlink" xml:space="preserve" viewBox="0 0 640 512"><defs><path id="a" d="M117.2 154.7h190.2v338.1H117.2z"/></defs><clipPath id="b"><use xlink:href="#a" overflow="visible"/></clipPath><path d="M222.9 302.6a84.5 84.5 0 1 1 169 0 84.5 84.5 0 0 1-169 0zm84.5 52.8a52.8 52.8 0 1 0 0-105.6h-2c1.5 3.4 2 7 2 10.6 0 23.3-19 42.2-42.3 42.2-3.6 0-7.2-.5-10.5-1.9v1.3a53 53 0 0 0 52.8 53.4zM180.2 208c31.1-28.9 73.8-53.2 127.2-53.2s96 24.3 127.2 53.2a256 256 0 0 1 61.3 86.6 21 21 0 0 1 0 16.2 267.6 267.6 0 0 1-61.3 86.6c-31.1 29-73.9 53.2-127.2 53.2s-96-24.3-127.2-53.2a268.7 268.7 0 0 1-61.4-86.6 21 21 0 0 1 0-16.2 257 257 0 0 1 61.4-86.6zm127.2-21.5c-43 0-78.5 19.6-105.6 44.7a227.7 227.7 0 0 0-52 71.5 235 235 0 0 0 52 71.5c27.1 25.2 62.5 44.8 105.6 44.8s78.4-19.7 105.6-45a245.8 245.8 0 0 0 52-71.5 238.4 238.4 0 0 0-52-71.5c-27.2-25.2-62.6-44.7-105.6-44.7z" clip-path="url(#b)"/><defs><path id="c" d="M307.4 133.6h211.3v338.1H307.4z"/></defs><clipPath id="d"><use xlink:href="#c" overflow="visible"/></clipPath><path fill="#d3d3d3" d="M195.6 194.8a180.3 180.3 0 0 1 111.8-40.1c53.4 0 96 24.3 127.2 53.2a256 256 0 0 1 61.3 86.6 21 21 0 0 1 0 16.2 261.8 261.8 0 0 1-52.7 78.2l69.5 54.4a15.9 15.9 0 0 1-19.6 25l-391-306.4a15.8 15.8 0 1 1 19.6-25l74 58zm25.8 20.3 30.4 23.8a84.5 84.5 0 0 1 130.8 102.5l35.5 27.8a256.6 256.6 0 0 0 46.9-66.6 238.4 238.4 0 0 0-52-71.5c-27.1-25.2-62.5-45.3-105.6-45.3a146 146 0 0 0-86 29.3zM357 321.2a53.2 53.2 0 0 0-49.5-72c-.4 0-.8.6-2 .6 1.5 3.3 2 6.9 2 10 0 7.3-1.6 13.6-4.3 19.2l53.8 42.2zm6.2 86 27.6 21.9c-24 13-51.7 21.4-83.3 21.4-53.4 0-96-24.3-127.2-53.2a268.8 268.8 0 0 1-61.3-86.6 21 21 0 0 1 0-16.2c6.3-15.1 17-34.7 32-54.3l25 19.6a211.5 211.5 0 0 0-26 42.2c9 20.4 26.5 48.5 52 72.1 27 25.2 62.5 44.7 105.5 44.7 20.3 0 38.8-4.3 55.7-11.5zM222.9 302c0-1.3 0-3.2.2-5l37 29.2c7 14 20 24.4 35.4 27.3l37.1 29.8A85 85 0 0 1 222.3 302h.6z" clip-path="url(#d)"/></svg>