<?xml version="1.0" encoding="utf-8"?>
<!-- Generator: Adobe Illustrator 26.0.2, SVG Export Plug-In . SVG Version: 6.00 Build 0)  -->
<svg version="1.1" id="Layer_1" xmlns="http://www.w3.org/2000/svg" xmlns:xlink="http://www.w3.org/1999/xlink" x="0px" y="0px"
	 viewBox="0 0 16 16" style="enable-background:new 0 0 16 16;" xml:space="preserve">
<style type="text/css">
	.st0{fill:#1A2B58;}
	.st1{fill:#0F8AB2;}
	.st2{fill:#FDFEFE;}
</style>
<g>
	<path class="st0" d="M0.2,9.2c0-0.8,0-1.6,0-2.5c0,0,0,0,0-0.1c0.1-0.2,0.1-0.4,0.2-0.6c0.3,0,0.6,0,0.9,0c0.2,0,0.4,0,0.5,0
		c0.3,0,0.6,0,0.9,0c0.3,0,0.5,0,0.8,0c0.1,0,0.1,0,0.2,0c0.2,0,0.4,0.1,0.6,0.1c0.1,0,0.1,0,0.2,0c0.1,0,0.2,0,0.2-0.1
		c0,0,0,0,0,0.1c0,0.3,0.1,0.5,0.2,0.7c0,0.1,0,0.1,0,0.2C4.9,7.2,4.8,7.3,4.7,7.4C4.6,7.5,4.4,7.6,4.4,7.7c0,0.1,0.2,0.2,0.2,0.3
		C4.7,8,4.8,8,4.8,8C5,7.8,5.1,7.7,5.3,7.5c0,0,0.1-0.1,0.1,0c0,0.1,0.1,0.1,0,0.2C5.2,7.8,5.1,8,5,8.1C4.9,8.2,4.9,8.2,5,8.3
		c0.2,0.2,0.4,0.4,0.6,0.6C5.8,9.2,5.9,9.2,6.3,9c0.1,0,0.1-0.1,0.2-0.1c0.1,0,0.1-0.1,0-0.2c0.1,0,0.1,0.1,0.2,0.1
		C7.9,9.6,9.5,9.6,10.8,9c0.1,0.1,0.2,0.1,0.3,0.1c0.2,0.2,0.4,0.2,0.6,0.4c0.1,0.1,0.3,0.2,0.4,0.3c0.3,0.2,0.6,0.4,0.8,0.6
		c0.2,0.1,0.4,0.2,0.5,0.4c0,0,0.1,0.1,0.1,0.1c0,0,0.1,0,0.1,0c0.2,0.1,0.3,0.3,0.5,0.4c0.2,0.2,0.4,0.3,0.6,0.5
		c0,0.1,0,0.1-0.1,0.1c-0.3,0.4-0.6,0.9-0.9,1.2c-1.4,1.6-3.5,2.5-5.6,2.6c-3.4,0.1-6.7-2.4-7.6-5.7C0.4,9.8,0.3,9.5,0.2,9.2z
		 M7,11.6C7,11.5,7,11.5,7,11.6C7,11.5,7,11.5,7,11.6c-0.1-0.1-0.2-0.2-0.3-0.2c-0.6-0.3-1.3,0.3-1.1,0.8c0,0.1,0,0.1,0.1,0.1
		c0,0,0,0.1,0,0.1C6.2,13.3,7.6,12.6,7,11.6C7,11.6,7,11.6,7,11.6L7,11.6z M12.1,11.8c0.2-0.5-0.1-1-0.6-1.1c-0.2,0-0.4,0.1-0.6,0.2
		c0,0.1-0.1,0.1-0.1,0.2c-0.1,0-0.1,0.1-0.1,0.1c-0.1,0.4,0.1,0.8,0.5,1c0.3,0.1,0.7,0,0.8-0.3C12,11.9,12.1,11.9,12.1,11.8z
		 M7.5,10.3c0,0.1,0,0.1,0,0.2c-0.1,0.5,0.5,0.9,1,0.8c0.3-0.1,0.5-0.3,0.6-0.6c0-0.1,0-0.1,0-0.2C9,10,8.6,9.7,8.3,9.7
		C7.9,9.7,7.6,10,7.5,10.3z M9.6,13.8c0.5,0.1,1-0.5,0.7-1.1c-0.1-0.2-0.2-0.4-0.5-0.4c0-0.1-0.1-0.1-0.2,0
		c-0.4-0.1-0.8,0.3-0.8,0.7c0,0.4,0.2,0.7,0.6,0.8C9.5,13.8,9.6,13.8,9.6,13.8z M3.3,12.4c0.5,0,0.9-0.2,1.2-0.5
		c0.6-0.6,1.3-1.2,1.9-1.8c0.1-0.1,0.1-0.1,0-0.2C5.7,9.3,5,8.6,4.3,7.9c-0.1-0.1-0.1-0.1-0.2,0C4,8,3.9,8.1,3.8,8.2
		C3.5,8.5,3.2,8.8,2.9,9.1C2.6,9.4,2.2,9.7,2,10C1.4,11,2.2,12.4,3.3,12.4z M7,9.7C6.8,9.5,6.6,9.4,6.5,9.2c0,0-0.1-0.1-0.1,0
		c-0.1,0-0.2,0-0.4,0c0,0,0,0,0,0c0.1,0.1,0.3,0.3,0.4,0.4C6.7,10,6.7,10,7,9.7C7,9.7,7,9.7,7,9.7z"/>
	<path class="st1" d="M14.7,11.8c-0.2-0.2-0.4-0.3-0.6-0.5c-0.2-0.1-0.3-0.3-0.5-0.4c0,0-0.1,0-0.1,0c-0.1,0-0.1,0-0.1-0.1
		c-0.1-0.2-0.3-0.3-0.5-0.4c-0.3-0.2-0.5-0.4-0.8-0.6c-0.1-0.1-0.3-0.2-0.4-0.3c-0.2-0.1-0.4-0.2-0.6-0.4c-0.1-0.1-0.2,0-0.3-0.1
		c0.4-0.2,0.7-0.5,1-0.8c0.1-0.1,0.1,0,0.2,0c1.2,0,2.4,0,3.6,0c0,0,0.1,0,0.1,0c0.1-0.1,0-0.2-0.1-0.2c-1.1,0-2.2,0-3.3,0
		c0,0-0.1,0-0.1,0c0.9-1.2,1.2-2.5,0.6-3.9c-0.9-2.6-4.3-3.4-6.4-1.8C5.7,2.7,5.2,3.4,5,4.2c0,0.2-0.1,0.3-0.1,0.5
		c-0.1,0.5-0.1,1,0,1.4c0,0.1-0.1,0.2-0.2,0.1c-0.1,0-0.1,0-0.2,0c-0.2,0-0.4,0-0.6-0.1c-0.1,0-0.1,0-0.2,0c-0.3,0-0.5,0-0.8,0
		c-0.3,0-0.6,0-0.9,0c-0.2,0-0.4,0-0.5,0c-0.3,0-0.6,0-0.9,0C1,3.8,2.7,1.9,4.8,0.9c0.7-0.3,1.4-0.5,2.1-0.6c0.2,0,0.4,0,0.5-0.1
		c0.4,0,0.7,0,1.1,0c0,0,0,0,0.1,0c0.4,0,0.8,0.1,1.2,0.2C14.7,1.7,17.4,7.4,14.7,11.8z"/>
	<path class="st2" d="M4.8,6.1c-0.1-0.5,0-1,0-1.4c0-0.2,0.1-0.3,0.1-0.5c0.2-0.8,0.7-1.5,1.4-2c2.1-1.6,5.5-0.8,6.4,1.8
		c0.6,1.4,0.3,2.7-0.6,3.9c0,0,0.1,0,0.1,0c1.1,0,2.2,0,3.3,0c0.1,0,0.2,0.1,0.1,0.2c0,0.1-0.1,0-0.1,0c-1.2,0-2.4,0-3.6,0
		c-0.1,0-0.1,0-0.2,0c-0.3,0.3-0.7,0.5-1,0.8C9.5,9.6,7.9,9.6,6.7,8.8c-0.1,0-0.1-0.1-0.2-0.1c0.1,0.1,0,0.1,0,0.2
		C6.4,8.9,6.3,9,6.3,9C5.9,9.2,5.8,9.2,5.6,8.9C5.4,8.7,5.2,8.5,5,8.3C4.9,8.2,4.9,8.2,5,8.1C5.1,8,5.2,7.8,5.4,7.7
		c0.1-0.1,0-0.1,0-0.2c-0.1-0.1-0.1,0-0.1,0C5.1,7.7,5,7.8,4.8,8C4.8,8,4.7,8,4.7,7.9C4.6,7.8,4.4,7.8,4.4,7.7
		c0-0.1,0.2-0.2,0.2-0.3C4.8,7.3,4.9,7.2,5,7c0.1-0.1,0.1-0.1,0-0.2C4.9,6.6,4.8,6.4,4.8,6.1C4.8,6.1,4.8,6.1,4.8,6.1z M10.2,7.3
		C10,7.1,9.8,6.9,9.6,6.7c0-0.1-0.1-0.1-0.1-0.1c-0.1,0-0.1,0-0.2,0c-0.5,0-1,0-1.4,0c0,0-0.1,0-0.1,0c-0.2,0-0.2,0-0.3-0.2
		C7.3,6.3,7.2,6.2,7.1,6C7,5.9,6.9,5.7,6.7,5.5C6.7,5.5,6.6,5.4,6.5,5.4c-0.3,0-0.6,0-0.8,0c-0.1,0-0.1,0-0.1-0.1
		c0-0.1,0-0.2,0.1-0.2c0.3,0,0.6,0,0.9,0c0.1,0,0.2,0,0.3,0.1c0.2,0.3,0.5,0.6,0.7,0.9c0.1,0.1,0.1,0.1,0.2,0.1c0.1,0,0-0.1,0-0.1
		c0-0.4,0-0.8,0-1.2c0-0.5,0-1,0-1.5c0-0.2,0-0.3,0.1-0.5c0.3-0.6,1.4-0.7,1.9-0.2c0.2,0.2,0.3,0.5,0.3,0.8c0,0.5,0,1,0,1.5
		c-0.2,0-0.3,0-0.5,0c-0.1,0-0.1,0-0.1,0.1c0,0.3,0,0.6,0,0.9c0,0.1,0,0.1,0.1,0.1c0.2,0.2,0.4,0.4,0.6,0.6c0,0.1,0.1,0.1,0.2,0.1
		c0.1,0,0.3,0,0.4,0c0.3,0,0.6,0,0.8,0.3c0.1,0.1,0.1,0.1,0.1,0c0.7-1,0.9-2.1,0.4-3.3c-1.5-3.5-6.6-2.4-6.8,1.1
		c0,0.4,0,0.7,0.1,1.1c0,0.2,0.1,0.4,0.3,0.6c0.6,1.1,1.6,1.8,2.9,1.9c0,0,0.1,0,0.1,0c1,0,1.8-0.3,2.6-1c0.2-0.2,0.2-0.2,0-0.4
		c-0.1-0.1-0.2-0.2-0.4-0.2C10.7,7.3,10.4,7.3,10.2,7.3z"/>
	<path class="st2" d="M3.3,12.4C2.2,12.4,1.4,11,2,10c0.2-0.4,0.5-0.6,0.8-0.9c0.3-0.3,0.6-0.6,0.9-0.9C3.9,8.1,4,8,4.2,7.9
		c0.1-0.1,0.1-0.1,0.2,0C5,8.6,5.7,9.3,6.4,10c0.1,0.1,0.1,0.1,0,0.2c-0.6,0.6-1.3,1.2-1.9,1.8C4.2,12.2,3.8,12.4,3.3,12.4z"/>
	<path class="st2" d="M7,11.6c0.5,1-0.8,1.7-1.3,0.8c0,0,0-0.1,0-0.1c0.4-0.2,0.7-0.5,1.1-0.8c0.1,0,0.1-0.1,0.2,0c0,0,0,0,0,0
		C7,11.5,7,11.6,7,11.6C7,11.6,7,11.6,7,11.6C7,11.6,7,11.6,7,11.6z"/>
	<path class="st2" d="M9.1,10.6c-0.1,0.3-0.3,0.5-0.6,0.6c-0.4,0.2-1-0.3-1-0.8C8,10.5,8.5,10.5,9.1,10.6z"/>
	<path class="st2" d="M12,11.9c-0.1,0.2-0.5,0.4-0.8,0.3c-0.4-0.1-0.6-0.6-0.5-1c0-0.1,0-0.1,0.1-0.1C11.2,11.4,11.6,11.7,12,11.9z"
		/>
	<path class="st2" d="M9.4,13.7c-0.3-0.1-0.6-0.4-0.6-0.8c0-0.4,0.4-0.8,0.8-0.7C9.6,12.7,9.5,13.2,9.4,13.7z"/>
	<path class="st2" d="M9.9,12.3c0.2,0,0.4,0.2,0.5,0.4c0.2,0.6-0.2,1.1-0.7,1.1C9.7,13.3,9.8,12.8,9.9,12.3z"/>
	<path class="st2" d="M7.5,10.3C7.6,10,7.9,9.7,8.3,9.7c0.4,0,0.8,0.3,0.8,0.7C8.5,10.4,8,10.3,7.5,10.3z"/>
	<path class="st2" d="M10.9,10.9c0.2-0.1,0.4-0.2,0.6-0.2c0.5,0.1,0.8,0.6,0.6,1.1c0,0,0,0,0,0C11.7,11.5,11.3,11.2,10.9,10.9
		C10.9,11,10.9,10.9,10.9,10.9z"/>
	<path class="st2" d="M5.6,12.2c-0.2-0.6,0.6-1.2,1.1-0.8C6.4,11.7,6,11.9,5.6,12.2z"/>
	<path class="st2" d="M7,9.7C7,9.7,7,9.7,7,9.7C6.7,10,6.7,10,6.4,9.7C6.2,9.6,6.1,9.4,6,9.3c0,0,0,0,0,0c0.1,0,0.2,0,0.4,0
		c0.1,0,0.1,0,0.1,0C6.6,9.4,6.8,9.5,7,9.7z"/>
	<path class="st1" d="M9.9,12.3c-0.1,0.5-0.2,1-0.3,1.5c-0.1,0-0.1,0-0.2,0c0.1-0.5,0.2-1,0.3-1.5C9.8,12.2,9.8,12.2,9.9,12.3z"/>
	<path class="st1" d="M10.9,10.9C10.9,10.9,10.9,11,10.9,10.9c0.4,0.4,0.8,0.6,1.2,0.9c0,0,0,0,0,0c0,0.1,0,0.1-0.1,0.2
		c-0.4-0.3-0.8-0.6-1.2-0.9C10.8,11,10.8,11,10.9,10.9z"/>
	<path class="st1" d="M7.5,10.3c0.5,0,1,0.1,1.5,0.1c0,0.1,0,0.1,0,0.2c-0.5,0-1-0.1-1.6-0.1C7.5,10.4,7.5,10.4,7.5,10.3z"/>
	<path class="st1" d="M5.6,12.2c0.4-0.3,0.8-0.5,1.1-0.8c0.1,0,0.2,0.1,0.2,0.2c-0.1,0-0.1,0-0.2,0c-0.4,0.3-0.7,0.5-1.1,0.8
		C5.6,12.3,5.6,12.3,5.6,12.2z"/>
	<path class="st1" d="M7,11.6C7,11.6,7,11.6,7,11.6C7,11.6,7,11.6,7,11.6z"/>
	<path class="st1" d="M7,11.6C7,11.6,7,11.5,7,11.6C7,11.5,7,11.5,7,11.6z"/>
	<path class="st1" d="M5.5,6.3C5.3,5.9,5.3,5.6,5.3,5.2c0.2-3.5,5.3-4.5,6.8-1.1c0.5,1.1,0.3,2.2-0.4,3.3c-0.1,0.1-0.1,0.1-0.1,0
		c-0.2-0.3-0.4-0.4-0.8-0.3c-0.1,0-0.3,0-0.4,0c-0.1,0-0.2,0-0.2-0.1c0-1.1,0-2.2,0-3.3c0-0.3-0.1-0.6-0.3-0.8
		C9.4,2.4,8.3,2.4,8,3.1C7.9,3.2,7.9,3.4,7.9,3.5c0,0.5,0,1,0,1.5c0,0.4,0,0.8,0,1.2c0,0.1,0,0.1,0,0.1c-0.1,0-0.1,0-0.2-0.1
		C7.4,5.9,7.2,5.6,6.9,5.3C6.9,5.2,6.8,5.2,6.7,5.2c-0.3,0-0.6,0-0.9,0c-0.1,0-0.1,0.1-0.1,0.2c0,0.1,0,0.1,0.1,0.1
		c0.3,0,0.6,0,0.8,0c0.1,0,0.1,0,0.2,0.1C6.9,5.7,7,5.9,7.1,6C5.9,6.8,5.9,6.1,5.5,6.3z M7.7,2.5C6.8,2.8,5.8,3.9,5.7,4.6
		c0.1,0,0.1,0,0.1-0.1c0.3-0.1,0.5-0.3,0.7-0.5c0.3-0.2,0.6-0.3,0.9-0.4c0.1,0,0.1,0,0.1-0.1C7.6,3.2,7.7,2.9,7.7,2.5z"/>
	<path class="st1" d="M7.9,6.6c0.5,0,1,0,1.4,0c0.1,0,0.1,0,0.2,0c0.1,0,0.1,0,0.1,0.1c0,0.5,0,0.9,0,1.4c0,0,0,0.1,0,0.1
		c0,0,0.1,0,0.1,0C10,8,10.2,7.7,10.2,7.3c0.2,0,0.5,0,0.7,0c0.2,0,0.3,0,0.4,0.2c0.2,0.2,0.2,0.2,0,0.4c-0.7,0.7-1.6,1-2.6,1
		c0,0-0.1,0-0.1,0c0-0.1,0-0.1,0-0.2c0-0.1-0.1-0.1-0.1-0.2c0-0.1-0.1-0.1-0.1-0.2C8.1,8.1,7.9,7.9,7.9,7.6C7.8,7.3,7.8,6.9,7.9,6.6
		z"/>
	<path class="st0" d="M7.9,6.6c-0.1,0.3,0,0.6,0,0.9c0,0.3,0.2,0.5,0.5,0.7c0.1,0,0.2,0.1,0.1,0.2c0,0.1,0.1,0.1,0.1,0.2
		c0,0.1,0,0.1,0,0.2C7.3,8.7,6.4,8.1,5.7,6.9C5.6,6.7,5.5,6.5,5.5,6.3C5.9,6.1,5.9,6.8,7.1,6c0.1,0.1,0.2,0.3,0.3,0.4
		c0.1,0.1,0.2,0.2,0.3,0.2C7.8,6.6,7.8,6.6,7.9,6.6z"/>
	<path class="st0" d="M10.2,5.2c0,0.6,0,1.2,0,1.8C10,6.7,9.8,6.5,9.6,6.3c0,0-0.1-0.1-0.1-0.1c0-0.3,0-0.6,0-0.9
		c0-0.1,0-0.1,0.1-0.1C9.9,5.2,10,5.2,10.2,5.2z"/>
	<path class="st0" d="M10.2,7.3c0,0.4-0.2,0.6-0.5,0.8c0,0-0.1,0.1-0.1,0c0,0,0-0.1,0-0.1c0-0.5,0-0.9,0-1.4
		C9.8,6.9,10,7.1,10.2,7.3z"/>
	<path class="st2" d="M7.7,2.5c0,0.3,0,0.7,0,1c0,0.1,0,0.1-0.1,0.1C7.2,3.7,6.9,3.9,6.6,4.1C6.4,4.2,6.2,4.4,5.9,4.5
		c0,0-0.1,0.1-0.1,0.1C5.8,3.9,6.8,2.8,7.7,2.5z"/>
</g>
</svg>
