<?xml version="1.0" encoding="UTF-8"?><svg id="Layer_1" xmlns="http://www.w3.org/2000/svg" viewBox="0 0 15.5 15.5"><defs><style>.cls-1{fill:#034997;}.cls-1,.cls-2,.cls-3,.cls-4,.cls-5,.cls-6{stroke-width:0px;}.cls-2{fill:#07144b;}.cls-3{fill:#2597bb;}.cls-4{fill:#ea167e;}.cls-5{fill:#fcfdfd;}.cls-6{fill:#0ca9d8;}</style></defs><path class="cls-5" d="M0,7.75C0,5.21,0,2.67,0,.12,0,.02.02,0,.12,0c5.08,0,10.17,0,15.25,0,.1,0,.12.02.12.12,0,5.08,0,10.17,0,15.25,0,.1-.02.12-.12.12-5.08,0-10.17,0-15.25,0-.1,0-.12-.02-.12-.12,0-2.54,0-5.08,0-7.63ZM2.09,2.63s-.02.02-.03.03h0s-.04.04-.06.06h0c-.52.57-.92,1.22-1.25,1.92-.26.55-.44,1.13-.56,1.73-.14.71-.19,1.42-.11,2.13,0,.05,0,.1.01.15-.01.02,0,.04,0,.06.03.34.08.68.17,1.01.18.7.46,1.36.84,1.97.57.91,1.3,1.69,2.2,2.3,1.5,1.01,3.14,1.57,4.96,1.4,2.88-.27,5.03-1.68,6.4-4.25.16-.31.27-.64.41-.96.1-.22.13-.46.18-.69.04-.21.11-.42.12-.65.02-.03.03-.06,0-.09,0-.03,0-.06.01-.09.01-.1.03-.2.04-.3.02-.65.02-1.3-.13-1.95-.06-.27-.13-.55-.2-.82-.11-.48-.32-.92-.55-1.35-.13-.25-.26-.5-.44-.71,0-.06-.04-.09-.07-.13-.19-.26-.38-.52-.61-.74-.19-.24-.42-.44-.64-.65-.29-.28-.62-.5-.95-.71-1.08-.71-2.26-1.14-3.55-1.23-1.44-.1-2.8.18-4.07.87-.51.27-.99.58-1.41.98-.02.02-.04.03-.06.05,0,0,0,0,0,0-.19.15-.36.31-.52.48,0,0-.02.02-.03.03h0s0,.01,0,.01c-.03.02-.06.04-.06.08h0s-.03,0-.03.03h0s-.03.01-.03.03h0Z"/><path class="cls-2" d="M.08,8.66c0-.05,0-.1-.01-.15.03-.03.06-.08.1-.02.07.09.15.07.25.07.14,0,.27-.09.41-.01.21.11.3.09.42-.1.02.05.03.1.05.14.16.38.48.56.88.49.23-.04.57-.36.54-.76-.03-.37-.23-.6-.56-.73.18-.09.33,0,.47.09.05.04.09.13.18.08.16-.03.3-.11.45-.17.41-.18.4-.18.39-.63,0-.08-.02-.11-.1-.1-.17,0-.34-.04-.49-.12-.15-.13-.31-.25-.39-.43-.06-.13-.06-.31-.15-.4-.09-.09-.27-.07-.4-.13-.11-.05-.24-.09-.26-.24.14.1.29.18.48.17.15,0,.24-.05.28-.21.05-.21.18-.37.37-.47.11-.06.14-.13.09-.24-.01-.16-.1-.27-.22-.37.05-.02.09,0,.13.01.18.07.29.2.36.38.05.13.08.14.18.03.08-.09.14-.18.16-.3.11.08.21.16.35.17.01.07-.02.13-.04.19-.02.04-.03.09.02.12.14.08.22.22.34.33.01.04.03.08.04.13.02.17.11.13.21.07.28-.16.57-.32.86-.48q.41-.23.24-.68s-.01-.02-.02-.03c-.03-.11-.07-.22-.1-.33.13.01.24-.04.36-.09l.07.18c0,.15.08.28.11.42.02.09.06.1.14.05.23-.13.46-.25.69-.38.11-.06.22-.13.31-.24.09-.12.05-.24.09-.35.06-.17-.05-.22-.16-.3-.32-.22-.43-.63-.28-.98.15-.34.51-.56.85-.47.16.04.28.02.38-.11.09.09.17.2.31.25-.03.04-.06.08-.1.11-.06.06-.08.11-.04.2.17.4.05.79-.32,1.03-.05.03-.07.06-.06.12.02.12.03.25.04.38,0,.05.02.1.07.12.15.08.3.16.45.25.01.01.02.04.04.04.74.4,1.46.83,2.19,1.25.04.02.08.07.14.06.01-.12.06-.22.1-.33.06-.06.11-.13.17-.19.07-.06.07-.12,0-.19-.13-.14-.25-.28-.37-.42-.02-.03-.08-.06-.03-.1.07-.05.11-.15.22-.15.11.12.22.24.33.37.1.15.19.29.42.21.09-.03.2-.01.3.01.21.05.45-.04.56-.23,0,.29.14.47.39.6-.02.02-.04.04-.06.06-.11.13-.28.24-.29.4-.02.31-.16.54-.37.74-.11.04-.21.11-.32.12-.08,0-.1.04-.09.12,0,.22,0,.44,0,.67,0,.25,0,.51,0,.79.14-.07.26-.14.39-.19.14-.06.22-.14.18-.3-.02-.09.02-.19.05-.28.03-.07.05-.13.05-.2.1-.03.14-.12.21-.18.12-.11.29-.13.45-.06-.07.04-.16.04-.18.14-.37.2-.39.8-.03,1.06.37.27.82.14,1.07-.31.12.18.12.32-.01.46-.07.07-.16.12-.25.17-.04-.02-.09,0-.13,0-.14.05-.29.05-.43.04-.19-.01-.31.09-.33.29-.02.23.15.47.37.55.21.07.45,0,.58-.2.03-.05.05-.1.08-.14.13.02.26.03.37-.07.03-.02.07-.04.11-.04.23-.02.48.01.7-.11.01,0,.03,0,.04,0,.11.09.21,0,.31-.03,0,.03,0,.06-.01.09,0,.03,0,.06,0,.09,0,.22-.08.43-.12.65-.05.24-.08.48-.18.69-.15.32-.25.65-.41.96-1.37,2.58-3.52,3.98-6.4,4.25-1.82.17-3.46-.39-4.96-1.4-.9-.61-1.63-1.38-2.2-2.3-.38-.61-.67-1.27-.84-1.97-.08-.33-.14-.67-.17-1.01,0-.02,0-.04,0-.06ZM9.63,13.23s-.01.02-.02.03c-.25.01-.45.2-.43.41.03.25.25.42.51.38.23-.04.38-.27.33-.49-.03-.19-.16-.28-.33-.34,0-.07-.02-.14-.04-.2-.04-.17-.13-.34-.11-.52.18-.07.35-.16.53-.25.23-.12.43-.29.66-.41,0,.07-.02.15-.01.22,0,.13.13.24.25.23.13,0,.22-.07.25-.2.03-.13-.04-.23-.17-.28-.05-.02-.1-.01-.13-.07.05-.05.09-.09.14-.14.11-.1.21-.2.32-.29.07-.06.01-.12-.01-.17-.02-.04-.05-.07-.09-.03-.18.12-.39.18-.56.33-.06,0-.12.02-.15.08-.06,0-.1.04-.15.06-.26.14-.51.28-.77.41-.22.11-.22.11-.19.35,0,.04,0,.09,0,.14.01.26.11.51.17.76ZM6.93,11.54s-.05,0-.07,0c-.03-.02-.05-.03-.08-.05-.66-.36-1.32-.72-1.98-1.06-.18-.09-.25-.2-.23-.4.02-.19,0-.39,0-.6-.16.06-.31.08-.46.07-.09,0-.11.03-.11.11,0,.24,0,.48,0,.72,0,.23.1.4.31.51.77.4,1.54.81,2.32,1.21.24.12.24.12.29-.15.05-.02.1-.05.15-.06.2-.04.2-.05.08-.21.04-.01.08-.03.12-.04.07.05.15.08.23.11.29.08.61-.04.78-.29.17-.25.15-.58-.04-.82-.17-.21-.45-.29-.69-.21-.28.09-.37.22-.39.53,0,0-.01.02-.02.03-.2.03-.24.1-.2.36-.01.06,0,.11.03.15-.04.02-.04.06-.04.1ZM11.78,12.99s.02-.05.02-.07c0-.15-.11-.28-.25-.28-.15,0-.26.13-.25.28.01.15.15.24.3.21.03,0,.07-.02.1-.04.11.01.17.12.29.16-.04-.13-.18-.16-.21-.27ZM3.38,7.83c-.17.02-.3.12-.46.17-.04.01-.05.05-.03.09.02.04.04.06.08.04.14-.05.29-.08.42-.16,0,0,.02,0,.03,0,.03,0,.05,0,.07-.03.35-.11.7-.23,1.04-.34.06-.02.13-.04.09-.13-.03-.09-.09-.09-.16-.06-.36.14-.72.27-1.08.43ZM9.26,7.16s0-.04-.03-.05c-.27-.44-.66-.66-1.17-.69-.2-.06-.4,0-.59.05-.45.15-.8.41-.94.89-.04.04-.04.1-.05.15-.06.18-.05.37-.02.55.03.18.11.32.29.42.3.17.45.45.45.8,0,.07.02.13.08.16.19.1.38.18.6.17.17,0,.35,0,.51-.08.82-.17,1.38-1.22,1.08-2.01-.04-.14-.09-.27-.2-.37h0ZM4.81,12.39c-.05-.01-.1-.03-.16-.04-.2-.05-.37.06-.41.24-.04.19.1.37.29.4.12.02.23-.01.31-.11.1-.14.11-.29.01-.43.11-.07.15-.18.2-.28.04.01.09.02.13.04.17.08.34.16.5.24.09.04.14.02.17-.07.02-.07.05-.14.08-.21.04-.07.01-.11-.06-.14-.11-.05-.22-.11-.32-.16-.34-.17-.36-.16-.51.2,0,0,0,0,0,.01-.06.03-.07.1-.1.14-.04.06-.04.15-.13.17ZM4.61,8.87c0-.1-.08-.16-.14-.22-.08-.07-.06-.12.03-.16.05-.02.07-.04.07-.09,0-.13,0-.25,0-.38,0-.05-.01-.07-.07-.06-.44.04-.57.2-.48.63,0,0,0,0,0,.01-.01,0-.03.02-.04.03-.17.12-.22.27-.16.46.05.17.1.2.35.2.04,0,.07,0,.11,0,.25-.02.35-.16.33-.41ZM11.14,8.78s-.06.03-.09.04c-.12.02-.16.06-.06.16.04.04.08.08.1.13.06.13.14.14.24.05.28-.07.53-.21.8-.3.23-.07.43-.16.46-.44,0-.02.02-.05.03-.07.02-.04.03-.07,0-.11-.03-.04-.08-.04-.12-.02-.1.04-.19.09-.29.13-.34.14-.68.27-1.02.41-.02,0-.05,0-.06.02ZM13.06,9.9c-.01-.06-.06-.08-.12-.1-.16-.06-.32-.12-.48-.19-.05-.02-.14-.07-.09-.12.09-.09.06-.2.09-.29.03-.09.01-.14-.1-.09-.14.06-.29.12-.43.17-.11.03-.13.09-.13.2,0,.2.06.41-.03.58-.1.19,0,.28.1.4.06.06.09.06.13-.02.1-.18.2-.36.26-.56.03-.09.07-.12.17-.08.15.06.3.11.45.17.06.03.11.04.17,0-.01.1.04.16.11.21.09.07.18.08.27,0,.07-.07.09-.16.04-.25-.06-.1-.15-.13-.27-.09-.05.02-.08.08-.14.08ZM3.76,12.39c.25-.38-.05-.82-.36-.94-.27-.1-.64.05-.75.35-.12.32-.03.68.31.83.33.15.66.05.79-.24ZM6.08,6.96c-.09-.36-.48-.56-.8-.42-.06,0-.11.03-.15.06-.29.17-.4.55-.25.84.16.3.51.43.81.3.34-.15.5-.47.39-.79ZM2.97,9.56s.03.07.05.11c.15.43.38.82.65,1.18.03.05.07.14.15.09.08-.05,0-.12-.03-.17-.06-.09-.12-.18-.12-.29,0-.14,0-.28,0-.42,0-.3.05-.6-.07-.89-.04-.1-.03-.22.02-.32.08-.18.05-.38.06-.56,0-.08-.03-.1-.1-.07-.17.07-.35.13-.52.2-.03.01-.07.02-.08.06-.03.17-.17.31-.1.5.02.07.03.15.04.22,0,.13-.13.13-.21.17-.19.08-.38.13-.57.2-.12.04-.18.18-.12.28.07.12.16.09.25.02.04-.03.09-.06.14-.09.18-.1.36-.2.57-.23ZM9.7,8.76c.06.05.09-.01.13-.04.18-.1.37-.17.58-.12.11.02.13,0,.12-.1,0-.44,0-.88,0-1.31q0-.35-.31-.52s-.02,0-.03-.01c-.06-.05-.11-.03-.15.03-.09.11-.17.23-.27.33-.12.12-.09.26-.04.39.18.46.15.92-.03,1.37h0ZM12.93,10.93c-.16-.24-.47-.34-.71-.21-.05.02-.09.04-.14.06-.34.21-.48.61-.33.97.13.3.46.45.84.35.27-.07.43-.26.49-.52.06-.24.04-.47-.15-.66ZM10.89,7.62s0,0,0,0c0,.27,0,.54,0,.82,0,.09.02.12.11.08.12-.05.24-.1.37-.14.09-.03.11-.07.11-.16,0-.49,0-.99,0-1.48,0-.06,0-.12-.02-.18-.07-.27-.31-.38-.5-.53-.21-.16-.46-.27-.69-.4-.79-.45-1.58-.89-2.36-1.35-.12-.07-.22-.09-.36-.01-.36.22-.74.4-1.1.62-.54.32-1.08.62-1.63.93-.1.06-.21.12-.29.21-.05.05-.07.1-.02.17.21.24.28.26.56.13.06-.03.13-.06.19-.1.69-.34,1.36-.73,2.02-1.13.32-.19.55-.19.86,0,.86.53,1.74,1.01,2.62,1.51.09.05.13.12.13.23,0,.26,0,.51,0,.77ZM8.63,12.13s.03-.01.04-.02c.79-.41,1.58-.82,2.36-1.25.07-.04.06-.08.02-.13-.08-.09-.15-.19-.22-.29-.06-.09-.11-.08-.2-.04-.29.16-.6.31-.89.47-.39.21-.77.41-1.15.63-.17.09-.19.18-.1.34.04.07.08.15.1.23,0,.03,0,.07.04.06ZM4.23,5.81c0-.38-.3-.69-.67-.69-.39,0-.73.35-.73.73,0,.31.34.72.71.7.39-.01.7-.34.7-.74ZM5.48,9.34c0,.37.3.68.66.68.39,0,.72-.33.72-.73,0-.37-.31-.67-.68-.66-.39,0-.69.32-.69.71ZM7.95,6.06c.41,0,.78.15,1.11.39.22.16.21.16.4-.05.08-.09.06-.13-.03-.19-.45-.25-.89-.51-1.34-.76-.36-.2-.36-.2-.72,0q-.19.1-.11.3c.03.09.07.19.1.29.02.08.05.1.14.08.15-.04.31-.06.46-.06ZM10.88,9.51c0-.33-.25-.61-.58-.61-.32,0-.62.26-.61.54.01.39.24.65.61.66.32,0,.58-.26.58-.59ZM12.34,5.63c0-.32-.28-.59-.6-.59-.32,0-.62.3-.61.61,0,.05.01.09.06.12.13.08.24.19.33.31.09.12.21.14.35.12.28-.05.47-.29.47-.57ZM7.12,2.63c0,.3.22.54.5.54.29,0,.54-.23.55-.52,0-.31-.22-.57-.51-.57-.29,0-.53.24-.53.54ZM7.73,12.9c.25,0,.47-.18.54-.37.07-.2.03-.4-.13-.55-.05-.05-.09-.06-.16-.04-.14.05-.29.08-.44.03-.15-.04-.24.02-.31.15-.1.17-.09.35.01.52.11.18.28.26.49.27ZM4.93,7.92c0,.2,0,.38,0,.56,0,.26,0,.25.25.31.1.02.16,0,.22-.08.09-.14.23-.22.38-.29q.21-.1.12-.32s-.02-.04-.02-.06c-.02-.05-.05-.06-.09-.04-.29.12-.57.08-.85-.08ZM6.21,13.1c0-.2-.22-.41-.43-.41-.21,0-.37.18-.37.41,0,.21.17.43.35.42.3-.01.45-.2.45-.42ZM9.94,10.35c-.19-.12-.32-.27-.45-.41-.08-.09-.18-.17-.28-.25-.13-.09-.21.01-.3.07-.08.05,0,.11.03.16.13.22.26.43.39.65.04.06.07.08.14.04.14-.08.29-.16.46-.25ZM1.79,10.64c0,.2.13.35.33.36.19,0,.33-.13.33-.32,0-.17-.15-.33-.32-.33-.21,0-.33.1-.34.29ZM4.01,6.97c0,.06,0,.12,0,.18,0,.09.03.1.1.06.09-.05.19-.08.29-.13.25-.12.27-.4.06-.57-.06-.05-.11-.05-.18-.03-.19.07-.27.22-.27.48ZM6.81,10.15c-.09.05-.17.12-.26.15-.21.08-.26.29-.3.46-.02.09.2.12.31.19,0,0,0,0,.01,0,.04.03.06.01.07-.03.04-.21.11-.41.23-.59.03-.05-.03-.18-.07-.18ZM8.46,14.29c.16,0,.29-.13.29-.29,0-.13-.17-.28-.31-.28-.11,0-.27.19-.27.3,0,.14.13.27.29.27ZM8.7,11.02c.11-.05.21-.1.32-.15.04-.02.06-.04.03-.09-.11-.18-.22-.37-.35-.57-.05.12-.21.16-.15.31.07.16.12.32.14.51ZM8.47,12.85c.19-.02.35-.06.51-.1.22-.06.22-.07.14-.28-.02-.05-.02-.13-.09-.15-.05-.02-.42.16-.44.21-.04.1-.08.21-.12.33ZM4.43,11.28c-.11.01-.12.1-.17.15-.04.05-.01.08.03.11.14.11.28.22.43.34.02.02.05.04.08.02.04-.02.13-.34.1-.36-.15-.09-.31-.18-.46-.26ZM11.71,10.78c-.01-.11-.08-.15-.12-.2-.12-.17-.25-.34-.4-.49-.06-.06-.11-.04-.16,0-.04.03-.06.07-.02.11.17.21.34.42.5.63.02.03.05.07.1.03.04-.04.1-.05.1-.09ZM7,12.85c-.05-.26-.23-.39-.46-.46-.07-.02-.12-.02-.14.06-.02.05-.03.11-.06.16-.04.08,0,.12.07.13.2.04.39.1.59.11ZM6.61,5.87s-.08.05-.13.07c-.11.04-.11.09-.04.17.08.09.15.18.21.27.04.06.08.09.16.04.07-.05.08-.09.04-.17-.06-.1-.11-.22-.16-.32-.01-.03-.02-.07-.07-.06ZM5.23,10.25c.14.07.28.14.42.21.09.05.13,0,.17-.07.06-.09,0-.11-.06-.14-.06-.04-.14-.07-.18-.13-.11-.14-.19-.08-.27.02-.02.03-.04.05-.07.09ZM4.93,10.01c.1-.08.17-.15.25-.2.11-.08.04-.16.02-.24-.04-.1-.14-.06-.21-.06-.1,0-.05.1-.05.15,0,.1,0,.21,0,.35ZM11.47,9.46c-.08.05-.15.09-.22.13-.03.02-.07.03-.03.08.08.09.14.2.25.3v-.5ZM5.89,6.3c.18.11.31.27.45.42.03.03.07.05.11.03.05-.04,0-.07-.02-.1-.09-.11-.19-.22-.27-.34-.08-.11-.15-.13-.26,0ZM5.27,13.76c-.09.01-.14.06-.13.15,0,.08.05.13.14.13.09,0,.14-.06.14-.14,0-.09-.06-.14-.15-.14ZM8.55,9.91c-.13.02-.22.04-.31.05-.05,0-.09.01-.11.07-.01.05,0,.08.04.09.05.02.1.09.16.02.07-.07.13-.14.22-.24ZM3.9,11.53c.1-.04.15-.15.22-.23.03-.03.05-.08,0-.12-.04-.03-.09-.01-.12.03-.06.07-.12.14-.18.2-.02.02-.05.05-.02.08.02.03.05.04.1.05ZM7.09,13.68c-.09,0-.13.05-.14.13,0,.09.05.14.14.14.08,0,.12-.05.12-.12,0-.09-.04-.14-.12-.15ZM10.94,13.51c-.05-.06-.1-.14-.16-.21-.02-.03-.05,0-.08.02-.03.02-.03.04-.01.06.04.07.09.13.14.2.02.03.05.02.08,0,.02-.01.05-.02.04-.07ZM2.94,11.03c0-.07-.04-.12-.11-.12-.08,0-.13.04-.13.11,0,.07.03.12.11.12.08,0,.12-.04.13-.11ZM6.78,13.19s0-.05-.04-.06c-.03,0-.06,0-.07.04-.03.07-.03.15-.08.21-.03.04-.03.08.02.1.05.03.09.01.11-.04.03-.08.04-.16.06-.25ZM7.01,10.59c-.07,0-.11.05-.12.12,0,.07.04.11.11.11.08,0,.11-.06.11-.13,0-.06-.04-.1-.11-.1ZM7.34,9.99c.03-.1-.04-.14-.12-.16-.03,0-.08-.05-.09,0-.03.06.03.12.05.18,0,.01.01.03.02.04.03.03.03.11.1.09.06-.02.05-.08.04-.14ZM10.31,12.57s-.07.03-.05.07c.04.1.09.19.18.26.02.02.06,0,.07-.03.02-.04-.14-.29-.2-.29ZM14.17,9.7s-.03-.09-.09-.1c-.06,0-.11.02-.11.09,0,.06.03.09.08.1.06,0,.1-.02.12-.09ZM7.68,3.51c-.06.14-.04.26-.06.37,0,.04.02.06.06.06.06,0,.07-.03.06-.08-.02-.11-.04-.21-.06-.35ZM1.42,9.81s.08-.03.08-.07c0-.04-.02-.08-.07-.08-.05,0-.08.02-.08.07,0,.05.02.08.07.08ZM6.62,14.15s-.03-.07-.07-.08c-.04,0-.07.02-.07.06,0,.05.02.08.07.08.04,0,.06-.02.07-.06ZM12.56,5.06s-.02-.06-.04-.05c-.04.02-.1.03-.09.1,0,.03.02.06.06.06.06-.01.06-.07.08-.11Z"/><path class="cls-6" d="M8.16,1.77c-.1.13-.22.15-.38.11-.34-.09-.71.13-.85.47-.15.34-.03.76.28.98.11.08.22.13.16.3-.04.11,0,.23-.09.35-.09.11-.2.17-.31.24-.23.13-.46.25-.69.38-.08.04-.12.03-.14-.05-.03-.14-.11-.27-.11-.42.12-.01.22-.08.34-.12.07-.02.11-.05.02-.12-.09-.06-.16-.15-.24-.22v-.17s0-.06-.03-.07c-.28-.36-.61-.33-.84.06-.06.07-.06.14,0,.21h0s0,.07.04.09c0,.02.02.03.03.05-.02.11-.04.22-.14.29-.05.04-.05.07-.01.11.02.03.02.06,0,.08-.03.02-.06,0-.08-.02-.07-.07-.17-.11-.2-.22-.01-.04-.04-.07-.09-.07-.04,0-.05.05-.06.08-.03.13-.13.2-.21.29-.05-.07.01-.16-.06-.2-.11-.2-.28-.28-.5-.27-.02-.03-.03-.02-.03,0h0c-.09,0-.16-.03-.21-.12-.02-.04-.1-.12-.12-.05-.04.09-.07.05-.1.02-.09-.07-.17-.08-.28-.05-.1.03-.2-.01-.25-.12-.04-.09-.06-.19.06-.24.06-.01.14.08.17,0,.03-.08-.06-.07-.11-.07.02-.06.07-.07.12-.07.09,0,.13-.06.06-.13-.09-.11-.14-.25-.22-.38-.14-.23-.28-.46-.3-.73,0,0,0,0,0,0,.03,0,.05-.01.06-.05.42-.4.91-.7,1.41-.98C5.5.26,6.86-.03,8.29.07c1.29.09,2.47.52,3.55,1.23.33.22.66.44.95.71.22.21.45.41.64.65-.05.19-.25.25-.35.39-.08.12-.19.2-.34.22-.04,0-.1.01-.13.06-.15-.03-.18.05-.16.17-.02.16-.16.22-.25.32-.09.09-.14.11-.2,0,0,0,0-.01,0-.02,0-.02,0-.04-.03-.05h0s-.02-.02-.03-.03c0,0-.02-.02-.03-.03-.01-.01-.02-.02-.04-.03h0c-.06-.1-.12-.09-.18,0h0s-.04,0-.05.03c0,0,0,0,0,0-.01.01-.02.02-.03.03,0,0,0,0,0,0-.01.01-.02.02-.03.04,0,0,0,0,0,0-.02,0-.03.03-.03.05,0,.01,0,.03,0,.04-.07.12-.09.26-.1.39-.01.14-.02.28-.19.34-.11-.12-.22-.24-.33-.37.01-.04.02-.09.03-.13.06-.31-.14-.52-.44-.47-.11-.04-.18.03-.26.08-.12-.04-.09-.14-.1-.23.09-.08.09-.27.28-.23.19.03.38-.08.47-.26.09-.19.05-.39-.11-.54-.15-.14-.35-.16-.53-.05-.19.11-.26.27-.2.49.02.08.01.14-.03.2-.15.21-.29.44-.45.64-.1.13-.16.29-.29.39-.17-.05-.35-.11-.52-.15-.21-.05-.23-.11-.27.18,0,.03-.02.07-.03.1-.15-.08-.3-.17-.45-.25-.05-.03-.06-.07-.07-.12-.01-.13-.03-.25-.04-.38,0-.06.02-.09.06-.12.38-.25.5-.63.32-1.03-.04-.09-.02-.14.04-.2.04-.03.07-.07.1-.11.02,0,.04-.01.06-.02.11-.02.22-.03.28-.14h0s.06-.02.06-.06h0s.05-.03.06-.06c.06-.14.03-.29-.09-.41-.13-.12-.33-.17-.49-.09-.14.07-.24.16-.22.34.01.07.02.13.04.2ZM9.06,2.31c-.21,0-.38.17-.38.38,0,.22.17.39.4.39.2,0,.37-.17.37-.38,0-.23-.16-.39-.39-.4ZM4.34,3.42c.15,0,.27-.11.28-.26,0-.16-.11-.27-.27-.28-.15,0-.27.12-.27.26,0,.14.13.27.27.27ZM5.11,1.62c-.11,0-.21.11-.21.21,0,.1.11.2.23.19.12,0,.18-.08.19-.19,0-.11-.1-.21-.21-.21ZM9.87,1.69c-.12,0-.18.08-.17.19,0,.11.08.18.19.17.1,0,.16-.07.16-.18,0-.12-.06-.17-.18-.18ZM11.82,3c.08-.01.13-.06.13-.14,0-.09-.05-.13-.13-.13-.08,0-.13.06-.13.14,0,.08.05.13.13.14ZM6.13,2.64c.06,0,.1-.04.1-.11,0-.06-.04-.1-.11-.1-.07,0-.1.04-.1.11,0,.06.04.1.11.1ZM6.58,1.21s.06-.02.09-.03c.05-.03.13-.02.14-.1,0-.02-.01-.04-.03-.04-.07,0-.13.02-.17.07-.02.02-.03.05-.01.1Z"/><path class="cls-1" d="M1.26,8.44c-.12.19-.21.21-.42.1-.14-.07-.27,0-.41.01-.1,0-.18.02-.25-.07-.05-.06-.07,0-.1.02-.08-.72-.03-1.43.11-2.13.12-.6.3-1.18.56-1.73.33-.69.73-1.35,1.25-1.91.01.08-.1.14-.03.22.08.1.09.22.13.33.02.08,0,.18.08.22.2.12.35.33.55.44.12.06.22.15.33.22.17.11.32.29.56.24.04.04.07.09.08.14-.02.12-.08.21-.16.3-.1.11-.13.1-.18-.03-.07-.17-.18-.31-.36-.38-.04-.02-.08-.04-.13-.01,0,0,0,0,0,0,0-.01,0-.03-.02-.01-.18-.08-.36-.17-.56-.06-.07,0-.14.03-.2.06-.38.19-.5.57-.33,1.02,0,.01.02.03.03.04h0s0,.05.04.06h0s.02.02.03.03h0c.02.14.15.19.26.23.13.06.31.04.4.13.09.09.09.27.15.4.08.18.24.3.39.43-.13.33-.19.68-.24,1.02-.09.06-.13-.04-.18-.08-.15-.1-.29-.18-.47-.09-.02,0-.03,0-.05,0-.07-.05-.13-.05-.2,0-.37.08-.58.31-.67.67-.06.05-.05.1,0,.15v.05ZM1.82,6.96c.1.1.27.13.37.07.11-.07.17-.23.14-.34-.04-.14-.17-.23-.33-.23-.26.04-.34.26-.18.5ZM1.55,6.09c0-.07-.05-.11-.11-.11-.07,0-.11.04-.11.11,0,.07.04.11.1.11.07,0,.11-.05.12-.11Z"/><path class="cls-1" d="M12.23,6.37c.22-.2.35-.43.37-.74.01-.16.18-.28.29-.4.02-.02.04-.04.06-.06.03,0,.06,0,.09,0,.32,0,.57-.25.55-.57-.02-.29-.27-.49-.59-.46-.02,0-.03,0-.05-.01.07-.09.16-.05.23-.03.17.03.32.03.47-.11.16-.15.3-.31.46-.45.19.21.31.47.44.71.23.43.44.88.55,1.35.06.27.13.55.2.82.15.65.15,1.29.13,1.95,0,.1-.02.2-.04.3-.1.04-.19.12-.31.03,0,0-.03,0-.04,0-.22.12-.46.08-.7.11-.04,0-.08.02-.11.04-.11.1-.24.09-.37.07.04-.21.02-.39-.14-.55.09-.05.18-.1.25-.17.13-.14.14-.28.01-.46.05-.23.07-.45-.12-.63-.03-.06-.07-.1-.13-.14-.18-.14-.39-.14-.6-.11-.16-.08-.33-.05-.45.06-.07.06-.12.15-.21.18-.08-.24-.17-.48-.25-.72ZM13.09,6.37c.14,0,.26-.12.25-.26,0-.11-.12-.22-.24-.22-.12,0-.24.12-.24.25,0,.13.1.23.23.23ZM13.37,5.54c0,.07.03.11.09.11.06,0,.1-.04.1-.1,0-.06-.03-.1-.09-.1-.07,0-.1.03-.11.09Z"/><path class="cls-3" d="M14.11,3.54c-.16.14-.3.3-.46.45-.15.14-.29.14-.47.11-.08-.01-.17-.06-.23.03-.19.06-.34.16-.38.37,0,.02-.01.05-.02.07-.12.19-.35.28-.56.23-.1-.02-.21-.04-.3-.01-.22.08-.32-.06-.42-.21.17-.05.18-.2.19-.34.01-.14.03-.27.1-.39.02.04-.01.09.03.14.07.08.15.12.25.09.12-.04.15-.14.15-.25.06.12.12.1.2,0,.1-.1.23-.16.25-.32.06.07.13.08.19.01.07-.07.03-.13-.03-.19.03-.05.08-.06.13-.06.15-.02.26-.1.34-.22.1-.15.3-.2.35-.39.23.23.43.48.61.74.03.04.07.08.07.13ZM11.97,4.62s.07-.03.09-.06c.05-.06.1-.12.15-.18.03-.04.05-.08,0-.12-.04-.04-.09-.02-.12.02-.07.08-.13.15-.2.23-.02.02-.03.05,0,.07.02.02.05.03.07.04Z"/><path class="cls-3" d="M3.62,4.39c-.24.05-.39-.14-.56-.24-.11-.07-.21-.15-.33-.22-.2-.11-.35-.31-.55-.44-.07-.04-.06-.15-.08-.22-.03-.11-.05-.23-.13-.33-.07-.08.04-.15.03-.22,0,0,0,0,0,0,.04,0,.06-.02.06-.06,0,0,0,0,0,0,.01-.01.02-.02.03-.03,0,0,0,0,0,0,.01-.01.02-.02.03-.03,0,0,0,0,0,0,.01-.01.02-.02.03-.03,0,0,0,0,0,0,.04-.01.06-.04.06-.08h0s0-.01,0-.01c0,0,.02-.02.03-.03.16-.18.33-.34.52-.48.02.28.16.51.3.73.08.12.12.26.22.38.06.07.02.12-.06.13-.05,0-.1.01-.12.07,0,0,0,0,0,0-.08-.02-.11-.12-.2-.13-.01,0-.02-.02-.03-.03-.01-.01-.02-.02-.03-.03,0,0,0,0-.01-.01,0,0,0,0,.01.01.01.01.02.02.03.03,0,.01.02.02.03.03.02.09.08.13.16.16,0,.01,0,.02,0,.04-.12.06-.1.15-.06.24.04.11.14.15.25.12.11-.03.19-.02.28.05.03.02.06.07.1-.02.03-.07.1.01.12.05.05.09.12.11.21.12-.14.03-.2.16-.29.24-.06.07-.03.15-.04.23h0s0,0,0,0Z"/><path class="cls-1" d="M2.21,2.49s-.02.07-.06.08c0-.04.04-.06.06-.08Z"/><path class="cls-1" d="M2.06,2.66s-.02.06-.06.06c.02-.02.04-.04.06-.06Z"/><path class="cls-1" d="M.08,8.66s.02.04,0,.06c-.02-.02-.02-.04,0-.06Z"/><path class="cls-3" d="M2.81,1.92s-.03.05-.06.05c.02-.02.04-.03.06-.05Z"/><path class="cls-1" d="M15.38,8.85s0-.06,0-.09c.02.03.01.06,0,.09Z"/><path class="cls-1" d="M2.24,2.46s-.02.02-.03.03c0,0,.02-.02.03-.03Z"/><path class="cls-1" d="M2.15,2.57s-.02.02-.03.03c0-.02.01-.03.03-.03Z"/><path class="cls-1" d="M2.12,2.6s-.02.02-.03.03c0-.02.01-.03.03-.03Z"/><path class="cls-1" d="M2.09,2.63s-.02.02-.03.03c.01-.01.02-.02.03-.03Z"/><path class="cls-5" d="M10.89,7.62c0-.26,0-.51,0-.77,0-.11-.04-.17-.13-.23-.88-.5-1.76-.98-2.62-1.51-.32-.19-.54-.2-.86,0-.66.4-1.33.78-2.02,1.13-.06.03-.12.07-.19.1-.29.13-.36.11-.56-.13-.06-.07-.03-.12.02-.17.08-.09.19-.15.29-.21.54-.31,1.09-.61,1.63-.93.36-.22.74-.39,1.1-.62.13-.08.24-.06.36.01.79.45,1.58.9,2.36,1.35.23.13.48.24.69.4.19.15.43.26.5.53.01.06.02.12.02.18,0,.49,0,.99,0,1.48,0,.09-.03.14-.11.16-.12.04-.25.09-.37.14-.09.04-.11.01-.11-.08,0-.27,0-.54,0-.82,0,0,0,0,0,0Z"/><path class="cls-6" d="M9.46,7.53c.3.79-.26,1.84-1.08,2.01-.04-.07-.08-.15-.17-.18-.12-.03-.19-.12-.24-.21-.19-.3-.4-.58-.65-.82-.31-.29-.5-.67-.78-.97.14-.48.49-.74.94-.89.19.12.37.25.52.42.07.08.13.17.23.2.05.09.12.15.19.2.21.23.47.31.78.22,0,0,.01,0,.01.02,0,.06.01.09.08.11,0-.14.05-.19.17-.11Z"/><path class="cls-5" d="M6.92,11.9c-.05.27-.05.27-.29.15-.77-.4-1.54-.81-2.32-1.21-.21-.11-.31-.28-.31-.51,0-.24,0-.48,0-.72,0-.08.01-.12.11-.11.15.02.3,0,.46-.07,0,.21.01.4,0,.6-.02.2.05.31.23.4.67.34,1.32.71,1.98,1.06.03.01.05.03.08.05-.02.13-.04.26.06.37Z"/><path class="cls-5" d="M8.63,12.13s-.04-.03-.04-.06c-.02-.08-.06-.16-.1-.23-.09-.15-.07-.24.1-.34.38-.21.77-.42,1.15-.63.3-.16.6-.31.89-.47.09-.05.14-.05.2.04.07.1.15.19.22.29.04.05.05.09-.02.13-.78.44-1.57.85-2.36,1.25-.01,0-.03.01-.04.02Z"/><path class="cls-4" d="M1.26,8.44s0-.04,0-.05c0-.05,0-.1,0-.15.08-.36.3-.59.67-.67.07,0,.14,0,.2,0,.02,0,.03,0,.05,0,.33.13.53.36.56.73.03.4-.31.72-.54.76-.4.07-.72-.11-.88-.49-.02-.05-.03-.1-.05-.14ZM1.96,7.65c-.1,0-.18,0-.23.07-.03.04-.02.1,0,.13.11.1.22.21.38.22.07,0,.13-.02.17-.08.04-.07.02-.13-.02-.18-.08-.11-.19-.16-.3-.16Z"/><path class="cls-5" d="M4.23,5.81c0,.4-.31.73-.7.74-.37.01-.71-.39-.71-.7,0-.37.35-.73.73-.73.37,0,.67.31.67.69Z"/><path class="cls-5" d="M5.48,9.34c0-.4.3-.71.69-.71.38,0,.68.29.68.66,0,.4-.32.73-.72.73-.35,0-.65-.31-.66-.68Z"/><path class="cls-3" d="M12.93,10.93c.19.18.21.42.15.66-.06.26-.23.45-.49.52-.37.1-.71-.05-.84-.35-.15-.36-.02-.76.33-.97.04-.03.09-.04.14-.06.03.22.14.36.33.39.18.04.28-.01.38-.19Z"/><path class="cls-5" d="M9.7,8.77c.18-.45.21-.91.03-1.37-.05-.13-.08-.26.04-.39.1-.1.18-.22.27-.33.04-.06.09-.07.15-.03,0,0,.02,0,.03.01q.31.17.31.52c0,.44,0,.88,0,1.31,0,.1-.02.13-.12.1-.21-.04-.4.03-.58.12-.04.02-.07.08-.13.04h0Z"/><path class="cls-3" d="M2.91,9.2c-.01-.07-.02-.15-.04-.22-.07-.19.07-.34.1-.5,0-.04.05-.05.08-.06.17-.07.35-.13.52-.2.07-.03.1,0,.1.07,0,.19.03.38-.06.56-.05.1-.06.22-.02.32.13.29.07.59.07.89,0,.14,0,.28,0,.42,0,.11.06.2.12.29.03.05.11.11.03.17-.08.05-.11-.04-.15-.09-.28-.36-.51-.75-.65-1.18-.01-.04-.03-.07-.05-.11-.01-.09.05-.13.11-.18.03-.02.1-.03.08-.09-.02-.06-.06-.09-.12-.09-.04,0-.09,0-.13,0Z"/><path class="cls-6" d="M7.15,10.93s.02-.02.02-.03c.02-.31.11-.44.39-.53.25-.08.53,0,.69.21.19.23.21.57.04.82-.17.26-.49.38-.78.29-.08-.02-.16-.06-.23-.11.08-.16.1-.31-.07-.43-.07-.05-.06-.14-.06-.22Z"/><path class="cls-5" d="M8.5,4.22s.03-.07.03-.1c.05-.29.06-.23.27-.18.18.04.35.1.52.15.07.13.17.2.32.17.47.29.92.59,1.31.98-.04.11-.08.22-.1.33-.06.01-.1-.03-.14-.06-.73-.42-1.45-.85-2.19-1.25-.02,0-.02-.03-.04-.04Z"/><path class="cls-5" d="M7.95,6.06c-.16,0-.31.02-.46.06-.08.02-.12,0-.14-.08-.03-.1-.06-.19-.1-.29q-.07-.21.11-.3c.36-.19.36-.19.72,0,.45.25.89.51,1.34.76.1.05.12.09.03.19-.19.21-.18.21-.4.05-.33-.24-.69-.38-1.11-.39Z"/><path class="cls-4" d="M1.76,5.41c-.17-.45-.05-.83.33-1.02.06-.03.13-.06.2-.06,0,.2.17.14.31.17-.17.09-.15.18-.04.26.09.07.21.1.26-.01.06-.12.1-.07.16-.02.03.02.07.04.11.06.05.11.02.18-.09.24-.19.1-.32.26-.37.47-.04.16-.14.2-.28.21-.19.01-.34-.07-.48-.17,0,0,0,0,0,0,0-.02-.01-.03-.03-.03,0,0,0,0,0,0,0-.03-.01-.05-.04-.06,0,0,0,0,0,0,0-.01-.02-.03-.03-.04Z"/><path class="cls-3" d="M10.96,5.24c-.39-.39-.85-.69-1.31-.98.16-.28.34-.55.54-.81,0,.09-.02.19.1.23-.01.03-.04.06-.04.1-.02.1.03.19.11.22.1.04.14-.05.18-.12.05-.09.03-.19,0-.28.3-.05.5.16.44.47,0,.04-.02.09-.03.13-.11,0-.14.1-.22.15-.05.03,0,.07.03.1.12.14.25.28.37.42.07.07.07.12,0,.19-.06.06-.11.13-.17.19Z"/><path class="cls-5" d="M10.88,9.51c0,.33-.26.6-.58.59-.37-.01-.6-.27-.61-.66,0-.28.3-.55.61-.54.32,0,.58.28.58.61Z"/><path class="cls-4" d="M6.08,6.96c.11.32-.05.64-.39.79-.3.13-.65,0-.81-.3-.15-.29-.04-.67.25-.84.05-.03.09-.06.15-.06.03.21.22.08.33.14-.05.05-.14.07-.11.16.03.09.11.14.2.16.11.02.14-.08.17-.16.08.04.12.11.2.12Z"/><path class="cls-3" d="M13.87,7.11c.19.18.17.4.12.63-.24.45-.69.58-1.06.31-.35-.26-.34-.85.03-1.06.06.07.11.15.19.21.27.21.56.17.72-.09Z"/><path class="cls-3" d="M2.97,12.63c-.34-.15-.43-.51-.31-.83.11-.3.48-.45.75-.35.3.12.6.56.36.94-.03-.04-.07-.03-.11-.03-.26,0-.5.07-.68.27Z"/><path class="cls-5" d="M12.34,5.63c0,.28-.19.52-.47.57-.14.02-.26,0-.35-.12-.09-.12-.2-.23-.33-.31-.05-.03-.06-.07-.06-.12,0-.31.29-.61.61-.61.32,0,.6.27.6.59Z"/><path class="cls-3" d="M4.47,4.18c.08.05.01.13.06.2.09-.09.19-.16.21-.29,0-.03.01-.07.06-.08.05,0,.08.03.09.07.03.11.13.14.2.22.02.02.05.04.08.02.03-.02.03-.05,0-.08-.04-.04-.03-.08.01-.11.09-.07.12-.18.14-.29.08.08.16.15.27.2.03.11.07.22.1.33-.05,0-.09.02-.14.04-.38.22-.73.48-1.04.8-.05.05-.09.11-.16.13-.12-.11-.2-.25-.34-.33-.05-.03-.03-.08-.02-.12.02-.06.06-.12.04-.19.32-.05.43-.19.42-.52Z"/><path class="cls-5" d="M7.12,2.63c0-.3.24-.54.53-.54.28,0,.52.26.51.57,0,.29-.25.52-.55.52-.28,0-.5-.24-.5-.54Z"/><path class="cls-3" d="M6.53,7.36c.28.31.47.68.78.97.26.24.47.52.65.82.06.09.13.18.24.21.09.03.13.11.17.18-.16.08-.33.08-.51.08-.13-.11-.26-.21-.35-.36-.17-.3-.33-.62-.55-.89-.22-.27-.41-.53-.5-.87.01-.05.01-.11.05-.15Z"/><path class="cls-5" d="M7.73,12.9c-.21,0-.38-.08-.49-.27-.1-.17-.11-.34-.01-.52.07-.12.16-.19.31-.15.15.04.3.02.44-.03.07-.02.11-.01.16.04.15.15.2.36.13.55-.07.2-.29.38-.54.37Z"/><path class="cls-5" d="M12.23,6.37c.08.24.17.48.25.72,0,.07-.02.14-.05.2-.03.09-.07.19-.05.28.04.17-.04.25-.18.3-.12.05-.24.12-.39.19,0-.28,0-.53,0-.79,0-.22,0-.44,0-.67,0-.07.02-.11.09-.12.12-.01.22-.08.32-.12Z"/><path class="cls-5" d="M13.73,8.37c.17.15.18.34.14.55-.03.05-.05.1-.08.14-.13.19-.37.27-.58.2-.22-.08-.39-.32-.37-.55.02-.2.13-.31.33-.29.15,0,.29,0,.43-.04.04-.01.09-.03.13,0Z"/><path class="cls-4" d="M12.56,4.57s.01-.05.02-.07c0,.1.05.12.14.09.16-.05.27-.23.28-.45.32-.03.58.17.59.46.02.32-.23.57-.55.57-.03,0-.06,0-.09,0-.25-.12-.4-.31-.39-.6Z"/><path class="cls-3" d="M13.04,9.96c-.05.04-.11.03-.17,0-.15-.06-.3-.11-.45-.17-.09-.04-.13,0-.17.08-.07.2-.17.38-.26.56-.04.07-.07.08-.13.02-.11-.12-.2-.21-.1-.4.09-.17.03-.39.03-.58,0-.11.03-.16.13-.2.15-.05.29-.11.43-.17.11-.05.13,0,.1.09-.03.1,0,.2-.09.29-.05.05.04.1.09.12.16.07.32.13.48.19.05.02.1.04.12.1,0,.02,0,.04-.01.06Z"/><path class="cls-6" d="M4.37,5.34c.07-.02.11-.08.16-.13.3-.32.66-.58,1.04-.8.05-.03.09-.04.14-.04,0,0,.01.02.02.03q.17.45-.24.68c-.29.16-.57.31-.86.48-.11.06-.19.1-.21-.07,0-.04-.03-.09-.04-.13Z"/><path class="cls-6" d="M11.2,8.75c.34-.14.68-.27,1.02-.41.1-.04.19-.08.29-.13.05-.02.09-.02.12.02.03.04.02.07,0,.11-.01.02-.03.04-.03.07-.03.28-.24.37-.46.44-.27.08-.52.23-.8.3-.18-.04-.21-.2-.29-.34.03-.01.06-.03.09-.04.02,0,.05,0,.06-.02Z"/><path class="cls-5" d="M4.93,7.92c.29.16.56.21.85.08.05-.02.08,0,.09.04,0,.02.02.04.02.06q.09.22-.12.32c-.15.07-.29.15-.38.29-.06.09-.12.11-.22.08-.25-.06-.25-.05-.25-.31,0-.18,0-.36,0-.56Z"/><path class="cls-5" d="M2.82,7.75c.06-.35.11-.69.24-1.02.16.08.32.12.49.12.08,0,.1.03.1.1.02.45.02.45-.39.63-.15.06-.29.14-.45.17Z"/><path class="cls-5" d="M5.6,4.03c-.1-.04-.19-.11-.27-.2,0-.02-.02-.03-.03-.05,0-.03,0-.06-.04-.08,0,0,0-.01,0-.01,0-.07,0-.14,0-.21.23-.39.56-.42.84-.06,0,.03,0,.05.03.07,0,.06,0,.11,0,.17-.04.1-.1.19-.18.28-.11.05-.23.1-.36.09Z"/><path class="cls-3" d="M10.74,11.84c-.23.12-.43.29-.66.41-.17.09-.34.18-.53.25-.03,0-.06-.02-.09-.03,0-.05,0-.09,0-.14-.03-.24-.02-.24.19-.35.26-.14.51-.28.77-.41.05-.03.09-.07.15-.06.06.11.11.22.17.33Z"/><path class="cls-5" d="M4.47,4.18c.02.33-.1.47-.42.52-.14,0-.25-.09-.35-.17-.02-.05-.04-.1-.08-.14,0,0,0,0,0,0,0,0,0,0,0,0,.07-.07.02-.15.04-.23.09-.09.15-.21.29-.24,0,0,0,0,0,0,.01,0,.02,0,.03,0,.22-.01.4.07.5.27Z"/><path class="cls-3" d="M8.23,7.08c-.11-.03-.17-.13-.23-.2-.15-.17-.33-.29-.52-.42.19-.06.38-.12.59-.05-.08.05-.21,0-.28.14.69.01,1.19.29,1.42.95-.31.09-.56.02-.78-.22.22.03.32-.02.33-.17,0-.16-.11-.3-.28-.31-.17,0-.24.08-.25.28Z"/><path class="cls-6" d="M6.21,13.1c0,.22-.15.41-.45.42-.18,0-.35-.21-.35-.42,0-.23.17-.42.37-.41.21,0,.43.21.43.41Z"/><path class="cls-1" d="M6.48,7.51c.09.33.28.6.5.87.22.27.38.58.55.89.09.15.22.25.35.36-.22,0-.41-.07-.6-.17-.07-.04-.08-.09-.08-.16,0-.35-.15-.63-.45-.8-.18-.1-.26-.24-.29-.42-.03-.18-.05-.37.02-.55Z"/><path class="cls-5" d="M9.94,10.35c-.17.09-.32.17-.46.25-.07.04-.1.02-.14-.04-.13-.22-.26-.43-.39-.65-.03-.05-.11-.11-.03-.16.08-.05.17-.16.3-.07.1.08.2.16.28.25.13.15.26.29.45.41Z"/><path class="cls-4" d="M10.02,13.56c.05.22-.1.45-.33.49-.26.04-.48-.13-.51-.38-.02-.21.18-.4.43-.41.06.27.2.37.41.3Z"/><path class="cls-3" d="M4.61,8.87c.03.25-.08.39-.33.41-.03,0-.07,0-.11,0-.25,0-.3-.03-.35-.2-.06-.19,0-.34.16-.46.01,0,.02-.02.04-.03.17.16.38.2.59.27Z"/><path class="cls-5" d="M4.61,8.87c-.21-.07-.43-.11-.59-.27,0,0,0-.01,0-.01-.08-.43.04-.59.48-.63.06,0,.07.01.07.06,0,.13,0,.25,0,.38,0,.06-.03.07-.07.09-.08.04-.1.09-.03.16.06.06.13.13.14.22Z"/><path class="cls-3" d="M5.04,12.07s0,0,0-.01c.15-.35.18-.36.51-.2.11.05.21.11.32.16.07.03.09.07.06.14-.03.07-.06.14-.08.21-.03.1-.08.12-.17.07-.17-.08-.34-.16-.5-.24-.04-.02-.08-.03-.13-.04,0-.03,0-.06-.01-.09Z"/><path class="cls-4" d="M4.86,12.44c.1.15.09.3-.01.43-.07.1-.18.13-.31.11-.2-.03-.33-.21-.29-.4.04-.18.21-.29.41-.24.05.01.1.03.16.04,0,.03.01.05.05.06Z"/><path class="cls-5" d="M1.79,10.64c0-.2.13-.3.34-.29.17,0,.32.16.32.33,0,.19-.14.32-.33.32-.19,0-.33-.16-.33-.36Z"/><path class="cls-5" d="M4.01,6.97c0-.26.08-.41.27-.48.07-.03.12-.02.18.03.22.17.19.46-.06.57-.1.04-.19.08-.29.13-.07.04-.11.03-.1-.06,0-.06,0-.12,0-.18Z"/><path class="cls-5" d="M9.2,7.51c-.23-.67-.73-.94-1.42-.95.07-.13.2-.08.28-.14.51.03.9.26,1.17.69,0,.02,0,.04.03.05,0,0,0,0,0,0,0,.08,0,.17,0,.25,0,.04.03.11-.05.11,0,0,0-.02-.01-.02Z"/><path class="cls-1" d="M2.91,9.2s.09,0,.13,0c.06,0,.11.03.12.09.02.06-.05.06-.08.09-.06.04-.13.08-.11.18-.21.03-.39.13-.57.23-.05.03-.09.06-.14.09-.09.07-.19.09-.25-.02-.06-.1,0-.24.12-.28.19-.07.38-.13.57-.2.08-.03.2-.04.21-.17Z"/><path class="cls-5" d="M13.87,7.11c-.16.26-.45.29-.72.09-.08-.06-.13-.14-.19-.21.02-.1.12-.1.18-.14.21-.02.42-.03.6.11.05.04.1.08.13.14Z"/><path class="cls-5" d="M6.81,10.15s.1.13.07.18c-.11.18-.19.38-.23.59,0,.05-.03.06-.07.03,0,0,0,0-.01,0-.11-.07-.33-.11-.31-.19.04-.17.09-.38.3-.46.09-.03.16-.1.26-.15Z"/><path class="cls-4" d="M8.53,1.99s-.04.01-.06.02c-.13-.04-.21-.15-.31-.25-.01-.07-.02-.13-.04-.2.09-.05.14-.15.23-.19.04-.02.11-.05.1.03,0,.13.05.19.15.22.12.04.16-.06.2-.14.11.09.1.19.05.3,0,0,0,0,0,0-.03,0-.05.03-.06.06,0,0,0,0,0,0-.1.04-.2.08-.28.14Z"/><path class="cls-5" d="M10.74,11.84c-.06-.11-.11-.22-.17-.33.03-.06.09-.08.15-.08.04.12.12.22.2.32.03.05.08.05.13.07.13.05.2.15.17.28-.03.13-.11.2-.25.2-.13,0-.24-.1-.25-.23,0-.07,0-.15.01-.22Z"/><path class="cls-6" d="M8.46,14.29c-.16,0-.29-.12-.29-.27,0-.12.17-.3.27-.3.14,0,.3.15.31.28,0,.16-.13.29-.29.29Z"/><path class="cls-5" d="M3.09,4.78s-.07-.03-.11-.06c-.06-.04-.1-.1-.16.02-.05.12-.17.08-.26.01-.11-.08-.13-.18.04-.26-.14-.04-.31.02-.31-.17.2-.11.38-.02.56.06,0,.01.01.02.02.01,0,0,0,0,0,0,.11.1.21.21.22.37Z"/><path class="cls-3" d="M3.42,7.96s-.02,0-.03,0c0-.05,0-.09,0-.14.35-.16.72-.29,1.08-.43.08-.03.13-.03.16.06.04.1-.03.11-.09.13-.35.12-.69.23-1.04.34-.03,0-.05,0-.07.03Z"/><path class="cls-5" d="M8.7,11.02c-.02-.19-.07-.35-.14-.51-.07-.15.1-.19.15-.31.12.2.23.39.35.57.03.05.01.07-.03.09-.1.05-.21.1-.32.15Z"/><path class="cls-3" d="M8.47,12.85c.04-.12.08-.23.12-.33.02-.05.39-.22.44-.21.07.02.07.09.09.15.08.22.08.22-.14.28-.16.05-.32.09-.51.1Z"/><path class="cls-5" d="M12.93,10.93c-.1.17-.2.22-.38.19-.19-.04-.31-.17-.33-.39.24-.13.55-.04.71.21Z"/><path class="cls-3" d="M4.43,11.28c.15.08.31.17.46.26.03.02-.06.35-.1.36-.03.02-.06,0-.08-.02-.14-.11-.28-.22-.43-.34-.04-.03-.07-.07-.03-.11.05-.05.06-.14.17-.15Z"/><path class="cls-5" d="M6.08,6.96c-.08,0-.12-.08-.2-.12-.03.08-.06.18-.17.16-.09-.02-.17-.07-.2-.16-.03-.09.06-.11.11-.16-.11-.06-.29.07-.33-.14.32-.14.71.06.8.42Z"/><path class="cls-3" d="M10.92,11.74c-.09-.09-.16-.2-.2-.32.17-.14.38-.21.56-.33.05-.03.07,0,.09.03.03.06.08.11.01.17-.11.1-.22.2-.32.29-.05.04-.09.09-.14.14Z"/><path class="cls-1" d="M11.71,10.78s-.07.05-.1.09c-.04.04-.07,0-.1-.03-.17-.21-.34-.42-.5-.63-.04-.05-.02-.08.02-.11.05-.04.1-.06.16,0,.15.15.28.31.4.49.04.06.11.09.12.2Z"/><path class="cls-3" d="M11.7,13.09s-.06.03-.1.04c-.16.03-.29-.07-.3-.21-.01-.15.1-.28.25-.28.14,0,.26.12.25.28,0,.02-.01.05-.02.07-.03.04-.05.07-.08.11Z"/><path class="cls-3" d="M7,12.85c-.2-.01-.39-.07-.59-.11-.07-.01-.11-.05-.07-.13.02-.05.04-.1.06-.16.02-.08.07-.08.14-.06.23.07.41.2.46.46Z"/><path class="cls-6" d="M2.97,12.63c.18-.21.42-.27.68-.27.04,0,.08,0,.11.03-.14.29-.47.39-.79.24Z"/><path class="cls-5" d="M6.61,5.87c.05-.01.06.03.07.06.06.11.1.22.16.32.04.08.04.12-.04.17-.08.06-.11.02-.16-.04-.07-.09-.14-.19-.21-.27-.07-.08-.07-.13.04-.17.05-.02.09-.05.13-.07Z"/><path class="cls-5" d="M5.23,10.25s.05-.07.07-.09c.08-.1.16-.16.27-.02.05.06.12.09.18.13.06.03.12.05.06.14-.05.07-.08.12-.17.07-.13-.08-.27-.14-.42-.21Z"/><path class="cls-4" d="M13.04,9.96s0-.04.01-.06c.06,0,.09-.06.14-.08.12-.04.21,0,.27.09.05.09.04.17-.04.25-.09.09-.18.07-.27,0-.07-.05-.13-.12-.11-.21Z"/><path class="cls-5" d="M4.93,10.01c0-.14,0-.24,0-.35,0-.05-.05-.15.05-.15.07,0,.18-.04.21.06.03.07.1.16-.02.24-.08.05-.15.12-.25.2Z"/><path class="cls-1" d="M7.15,10.93c0,.08,0,.17.06.22.16.13.14.27.07.43-.04.01-.08.03-.12.04-.09.01-.15-.04-.22-.09,0-.04,0-.08.04-.1.08.04.16.1.24,0,.05-.07.03-.14-.02-.19-.09-.09-.17-.03-.24.04-.04-.25,0-.33.2-.36Z"/><path class="cls-3" d="M5.96,3.94c.08-.08.14-.17.18-.28.08.08.16.16.24.22.09.06.05.09-.02.12-.11.04-.21.1-.34.12-.02-.06-.05-.12-.07-.18Z"/><path class="cls-5" d="M11.47,9.46v.5c-.11-.1-.17-.21-.25-.3-.04-.04,0-.06.03-.08.07-.04.14-.08.22-.13Z"/><path class="cls-5" d="M5.89,6.3c.11-.12.18-.1.26,0,.08.12.19.22.27.34.02.03.07.06.02.1-.03.02-.08,0-.11-.03-.13-.15-.26-.3-.45-.42Z"/><path class="cls-3" d="M6.93,11.54c.06.05.13.1.22.09.12.16.11.17-.08.21-.05,0-.1.04-.15.06-.11-.11-.09-.24-.06-.37.02,0,.05,0,.07,0Z"/><path class="cls-5" d="M10.02,13.56c-.21.07-.35-.03-.41-.3,0-.01.01-.02.02-.03.02,0,.04,0,.06,0,.17.05.3.15.33.34Z"/><path class="cls-1" d="M3.38,7.83s0,.09,0,.14c-.13.08-.28.1-.42.16-.04.02-.06,0-.08-.04-.02-.04,0-.07.03-.09.16-.05.29-.15.46-.17Z"/><path class="cls-5" d="M6.95,11.28c.07-.07.15-.13.24-.04.05.05.07.12.02.19-.08.1-.16.05-.24,0-.02-.05-.04-.1-.03-.15Z"/><path class="cls-5" d="M5.27,13.76c.09,0,.14.05.15.14,0,.09-.05.14-.14.14-.08,0-.13-.05-.14-.13,0-.09.04-.14.13-.15Z"/><path class="cls-5" d="M8.55,9.91c-.09.1-.15.17-.22.24-.06.07-.11,0-.16-.02-.05-.02-.05-.05-.04-.09.01-.06.05-.07.11-.07.09,0,.18-.03.31-.05Z"/><path class="cls-1" d="M3.9,11.53s-.08-.02-.1-.05c-.02-.03,0-.05.02-.08.06-.07.12-.14.18-.2.03-.04.08-.06.12-.03.05.04.03.08,0,.12-.07.08-.11.19-.22.23Z"/><path class="cls-5" d="M7.09,13.68c.09.01.13.07.12.15,0,.07-.05.12-.12.12-.09,0-.14-.06-.14-.14,0-.08.04-.13.14-.13Z"/><path class="cls-1" d="M9.69,13.22s-.04,0-.06,0c-.06-.25-.16-.5-.17-.76.03,0,.06.02.09.03-.02.19.07.35.11.52.01.07.05.13.04.2Z"/><path class="cls-3" d="M11.05,8.82c.07.13.11.3.29.34-.1.09-.18.09-.24-.05-.02-.05-.06-.09-.1-.13-.1-.1-.06-.14.06-.16Z"/><path class="cls-5" d="M10.94,13.51s-.01.06-.04.07c-.03.01-.06.03-.08,0-.05-.07-.09-.13-.14-.2-.01-.02-.02-.05.01-.06.02-.02.05-.05.08-.02.06.07.11.15.16.21Z"/><path class="cls-6" d="M2.94,11.03c-.01.07-.06.12-.13.11-.07,0-.11-.05-.11-.12,0-.08.05-.12.13-.11.07,0,.11.05.11.12Z"/><path class="cls-3" d="M6.78,13.19c-.02.08-.04.17-.06.25-.02.05-.06.07-.11.04-.05-.02-.05-.06-.02-.1.05-.06.05-.14.08-.21.01-.03.04-.05.07-.04.03,0,.04.03.04.06Z"/><path class="cls-3" d="M7.01,10.59c.07,0,.11.04.11.1,0,.07-.04.13-.11.13-.07,0-.11-.04-.11-.11,0-.07.05-.12.12-.12Z"/><path class="cls-3" d="M7.34,9.99c0,.06.01.12-.04.14-.07.02-.07-.05-.1-.09,0-.01-.02-.03-.02-.04-.02-.06-.08-.12-.05-.18.02-.04.06,0,.09,0,.08.03.15.07.12.16Z"/><path class="cls-3" d="M9.21,7.53c.08,0,.05-.07.05-.11,0-.08,0-.17,0-.25.11.1.16.23.2.37-.12-.08-.18-.04-.17.11-.07-.02-.09-.06-.08-.11Z"/><path class="cls-3" d="M10.31,12.57c.06,0,.21.25.2.29-.02.03-.05.05-.07.03-.08-.07-.14-.16-.18-.26-.01-.04.03-.06.05-.07Z"/><path class="cls-5" d="M14.17,9.7c-.01.07-.05.1-.12.09-.06,0-.09-.04-.08-.1,0-.07.05-.1.11-.09.06,0,.08.05.09.1Z"/><path class="cls-3" d="M7.68,3.51c.02.14.04.24.06.35,0,.05,0,.08-.06.08-.04,0-.07-.02-.06-.06.02-.11,0-.23.06-.37Z"/><path class="cls-1" d="M4.86,12.44s-.05-.02-.05-.06c.09-.02.09-.11.13-.17.03-.05.04-.12.1-.14,0,.03,0,.06.01.09-.05.1-.09.22-.2.28Z"/><path class="cls-5" d="M1.42,9.81c-.05,0-.07-.04-.07-.08,0-.05.03-.07.08-.07.05,0,.07.04.07.08,0,.04-.03.07-.08.07Z"/><path class="cls-1" d="M11.7,13.09s.06-.07.08-.11c.03.11.16.14.21.27-.12-.03-.18-.15-.29-.16Z"/><path class="cls-5" d="M6.62,14.15s-.03.06-.07.06c-.04,0-.07-.03-.07-.08,0-.04.03-.06.07-.06.04,0,.07.03.07.08Z"/><path class="cls-1" d="M12.56,5.06s-.02.1-.08.11c-.03,0-.05-.03-.06-.06,0-.06.05-.08.09-.1.03-.01.04.01.04.05Z"/><path class="cls-1" d="M3.42,7.96s.04-.03.07-.03c-.02.02-.04.03-.07.03Z"/><path class="cls-3" d="M11.2,8.75s-.04.03-.06.02c.01-.02.03-.03.06-.02Z"/><path class="cls-3" d="M9.26,7.16s-.03-.03-.03-.05c.02,0,.03.02.03.05Z"/><path class="cls-5" d="M9.7,8.76s0,0,0,0c0,0,0,0,0,0Z"/><path class="cls-2" d="M10.19,3.46c-.2.26-.38.52-.54.81-.15.03-.25-.04-.32-.17.13-.1.19-.26.29-.39.16-.2.3-.43.45-.64.04-.06.05-.12.03-.2-.05-.22.02-.38.2-.49.18-.11.38-.09.53.05.15.14.2.35.11.54-.09.18-.28.29-.47.26-.2-.03-.19.15-.28.23ZM10.42,2.85c.08.09.24.13.29.06.07-.09.05-.17-.05-.24-.05-.09-.11-.15-.22-.13-.08.01-.12.07-.13.14-.02.09.03.14.11.17Z"/><path class="cls-5" d="M9.06,2.31c.22,0,.39.17.39.4,0,.21-.17.38-.37.38-.23,0-.4-.17-.4-.39,0-.22.17-.38.38-.38Z"/><path class="cls-5" d="M4.34,3.42c-.14,0-.27-.13-.27-.27,0-.15.12-.26.27-.26.16,0,.28.11.27.28,0,.15-.12.26-.28.26Z"/><path class="cls-5" d="M8.87,1.79c.05-.1.05-.2-.05-.3-.04.08-.08.18-.2.14-.1-.04-.16-.1-.15-.22,0-.08-.06-.05-.1-.03-.1.04-.15.14-.23.19-.03-.18.08-.27.22-.34.16-.08.36-.04.49.09.12.12.16.27.09.41-.01.03-.02.06-.06.06Z"/><path class="cls-5" d="M12,3.82c0,.11-.03.21-.15.25-.1.03-.18,0-.25-.09-.04-.05-.01-.1-.03-.14,0-.01,0-.03,0-.04.02,0,.03-.03.03-.05,0,0,0,0,0,0,.01-.01.02-.02.03-.04,0,0,0,0,0,0,.01-.01.02-.02.03-.03,0,0,0,0,0,0,.02-.01.03-.02.05-.03,0,0,0,0,0,0,.06,0,.12,0,.18,0,0,0,0,0,0,0,.01.01.02.02.04.03,0,0,.02.02.03.03.01.01.02.02.03.04,0,0,0,0,0,0,0,.02,0,.04.03.05,0,0,0,0,0,.02Z"/><path class="cls-4" d="M5.11,1.62c.11,0,.22.1.21.21,0,.12-.07.19-.19.19-.12,0-.23-.09-.23-.19,0-.11.1-.22.21-.21Z"/><path class="cls-5" d="M9.87,1.69c.12,0,.18.06.18.18,0,.11-.06.17-.16.18-.11,0-.18-.06-.19-.17,0-.11.06-.18.17-.19Z"/><path class="cls-5" d="M10.55,3.62c.03.09.04.19,0,.28-.04.07-.09.16-.18.12-.09-.04-.13-.12-.11-.22,0-.03.03-.06.04-.1.08-.04.15-.12.26-.08Z"/><path class="cls-5" d="M11.82,3c-.08,0-.13-.05-.13-.14,0-.08.05-.14.13-.14.08,0,.13.05.13.13,0,.08-.05.13-.13.14Z"/><path class="cls-5" d="M12.62,3.34c.06.05.1.12.03.19-.06.07-.13.05-.19-.01-.02-.13,0-.21.16-.17Z"/><path class="cls-5" d="M6.13,2.64c-.07,0-.1-.04-.11-.1,0-.07.03-.11.1-.11.06,0,.1.04.11.1,0,.06-.03.1-.1.11Z"/><path class="cls-5" d="M6.58,1.21c-.02-.05,0-.08.01-.1.05-.05.1-.08.17-.07.02,0,.04.02.03.04,0,.08-.09.07-.14.1-.03.01-.05.02-.09.03Z"/><path class="cls-5" d="M3.08,3.28s0,0,0,0c.05,0,.14,0,.11.07-.03.08-.11,0-.17,0,0-.01,0-.03,0-.04.02-.01.03-.02.05-.04Z"/><path class="cls-5" d="M8.53,1.99c.08-.07.19-.1.28-.14-.06.11-.17.12-.28.14Z"/><path class="cls-3" d="M11.89,3.67c-.06,0-.12,0-.18,0,.06-.09.12-.1.18,0Z"/><path class="cls-3" d="M5.28,3.49c0,.07,0,.14,0,.21-.06-.07-.06-.14,0-.21Z"/><path class="cls-5" d="M8.81,1.85s.03-.06.06-.06c0,.04-.01.07-.06.06Z"/><path class="cls-3" d="M6.14,3.5s-.03-.04-.03-.07c.03.01.03.04.03.07Z"/><path class="cls-3" d="M5.27,3.71s.03.05.04.08c-.04-.01-.04-.04-.04-.08Z"/><path class="cls-3" d="M11.98,3.76s-.02-.02-.03-.04c.01.01.02.02.03.04Z"/><path class="cls-3" d="M11.6,3.76s0,.04-.03.05c0-.02,0-.04.03-.05Z"/><path class="cls-3" d="M12.01,3.81s-.03-.03-.03-.05c.02,0,.03.03.03.05Z"/><path class="cls-3" d="M3.97,3.91s-.02,0-.03,0c0-.02.02-.03.03,0Z"/><path class="cls-3" d="M11.66,3.7s-.02.02-.03.03c.01-.01.02-.02.03-.03Z"/><path class="cls-3" d="M11.92,3.7s-.02-.02-.04-.03c.01.01.02.02.04.03Z"/><path class="cls-3" d="M11.7,3.67s-.03.02-.05.03c0-.02.03-.03.05-.03Z"/><path class="cls-3" d="M11.63,3.73s-.02.02-.03.04c.01-.01.02-.02.03-.04Z"/><path class="cls-3" d="M1.99,6.46c.16,0,.29.09.33.23.03.12-.03.28-.14.34-.1.06-.27.03-.37-.07-.04-.2.04-.36.18-.5Z"/><path class="cls-5" d="M1.99,6.46c-.14.14-.21.3-.18.5-.17-.24-.09-.46.18-.5Z"/><path class="cls-5" d="M1.55,6.09c-.01.06-.05.11-.12.11-.06,0-.1-.04-.1-.11,0-.07.04-.11.11-.11.06,0,.1.04.11.11Z"/><path class="cls-2" d="M2.12,7.57c-.07,0-.14,0-.2,0,.07-.04.14-.05.2,0Z"/><path class="cls-2" d="M1.25,8.24s0,.1,0,.15c-.05-.05-.06-.1,0-.15Z"/><path class="cls-2" d="M1.79,5.45s.04.03.04.06c-.03,0-.04-.03-.04-.06Z"/><path class="cls-2" d="M1.82,5.5s.03.01.03.03c-.01-.01-.02-.02-.03-.03Z"/><path class="cls-2" d="M2.87,4.4s-.02,0-.02-.01c.02-.01.02,0,.02.01Z"/><path class="cls-2" d="M1.76,5.41s.02.03.03.04c0-.01-.02-.03-.03-.04Z"/><path class="cls-5" d="M13.09,6.37c-.13,0-.23-.1-.23-.23,0-.13.11-.25.24-.25.12,0,.24.11.24.22,0,.14-.12.26-.25.26Z"/><path class="cls-5" d="M13,4.15c0,.22-.13.4-.28.45-.09.03-.14,0-.14-.09.04-.21.18-.31.38-.37.02,0,.03,0,.05.01Z"/><path class="cls-3" d="M13.37,5.54c0-.07.04-.1.11-.09.06,0,.09.04.09.1,0,.07-.04.11-.1.1-.06,0-.1-.04-.09-.11Z"/><path class="cls-6" d="M11.97,4.62s-.05-.02-.07-.04c-.02-.02,0-.05,0-.07.06-.08.13-.15.2-.23.03-.04.07-.06.12-.02.04.04.03.08,0,.12-.05.06-.1.12-.15.18-.02.03-.04.06-.09.06Z"/><path class="cls-6" d="M3.08,3.28s-.03.02-.05.04c-.08-.03-.14-.07-.16-.16,0,0,0,0,0,0,.09,0,.12.11.2.13Z"/><path class="cls-1" d="M3.64,4.16c-.01.08.03.16-.04.23,0-.08-.02-.16.04-.23Z"/><path class="cls-6" d="M2.85,3.12s.02.02.03.03c0,0,0,0,0,0,0-.01-.02-.02-.03-.03,0,0,0,0,0,0Z"/><path class="cls-6" d="M2.82,3.09s0,0-.01-.01c0,0,0,0,.01.01h0Z"/><path class="cls-6" d="M2.82,3.09s.02.02.03.03c0,0,0,0,0,0-.01-.01-.02-.02-.03-.03,0,0,0,0,0,0Z"/><path class="cls-5" d="M8.23,7.08c0-.2.08-.29.25-.28.16,0,.28.15.28.31,0,.15-.11.2-.33.17-.08-.05-.15-.12-.19-.2Z"/><path class="cls-5" d="M1.96,7.65c.11,0,.22.05.3.16.04.05.06.12.02.18-.04.06-.1.09-.17.08-.16-.01-.27-.12-.38-.22-.03-.03-.03-.09,0-.13.05-.07.13-.07.23-.07Z"/><path class="cls-5" d="M10.42,2.85c-.08-.03-.12-.08-.11-.17.02-.07.05-.13.13-.14.11-.02.18.04.22.13-.03.13-.15.15-.25.18Z"/><path class="cls-3" d="M10.42,2.85c.1-.03.22-.05.25-.18.09.06.11.15.05.24-.06.07-.21.04-.29-.06Z"/></svg>